<?xml version="1.0" encoding="UTF-8" standalone="no"?>
<!DOCTYPE svg PUBLIC "-//W3C//DTD SVG 1.1//EN" "http://www.w3.org/Graphics/SVG/1.1/DTD/svg11.dtd">
<svg width="100%" height="100%" viewBox="0 0 60 60" version="1.1" xmlns="http://www.w3.org/2000/svg" xmlns:xlink="http://www.w3.org/1999/xlink" xml:space="preserve" xmlns:serif="http://www.serif.com/" style="fill-rule:evenodd;clip-rule:evenodd;stroke-linejoin:round;stroke-miterlimit:2;">
    <path d="M60,0L60,60L0,60L0,0L60,0ZM46.8,26.818L48.078,26.818C48.06,26.268 47.89,25.776 47.567,25.343C47.247,24.909 46.814,24.569 46.267,24.32C45.72,24.068 45.095,23.942 44.392,23.942C43.696,23.942 43.066,24.07 42.501,24.325C41.94,24.577 41.493,24.933 41.159,25.391C40.828,25.845 40.663,26.378 40.663,26.989C40.663,27.724 40.912,28.319 41.409,28.773C41.906,29.228 42.581,29.577 43.433,29.822L44.776,30.206C45.159,30.313 45.516,30.437 45.846,30.579C46.176,30.721 46.443,30.906 46.645,31.133C46.848,31.36 46.949,31.655 46.949,32.017C46.949,32.415 46.832,32.763 46.597,33.061C46.363,33.356 46.045,33.587 45.644,33.754C45.243,33.917 44.79,33.999 44.285,33.999C43.852,33.999 43.447,33.935 43.071,33.807C42.698,33.675 42.389,33.477 42.144,33.21C41.903,32.94 41.764,32.599 41.729,32.188L40.365,32.188C40.408,32.784 40.591,33.308 40.914,33.759C41.24,34.21 41.688,34.561 42.256,34.814C42.828,35.066 43.504,35.192 44.285,35.192C45.124,35.192 45.836,35.052 46.421,34.771C47.011,34.49 47.458,34.112 47.764,33.636C48.073,33.161 48.227,32.628 48.227,32.038C48.227,31.527 48.122,31.096 47.913,30.744C47.703,30.392 47.437,30.105 47.114,29.881C46.794,29.654 46.459,29.474 46.107,29.343C45.759,29.212 45.443,29.109 45.159,29.034L44.051,28.736C43.849,28.683 43.627,28.613 43.385,28.528C43.144,28.439 42.913,28.327 42.693,28.193C42.473,28.054 42.292,27.882 42.149,27.676C42.011,27.466 41.942,27.216 41.942,26.925C41.942,26.577 42.041,26.266 42.24,25.993C42.442,25.719 42.723,25.504 43.082,25.348C43.444,25.192 43.866,25.114 44.349,25.114C45.01,25.114 45.567,25.263 46.022,25.561C46.477,25.859 46.736,26.278 46.8,26.818ZM16.287,26.818L17.565,26.818C17.548,26.268 17.377,25.776 17.054,25.343C16.734,24.909 16.301,24.569 15.754,24.32C15.207,24.068 14.582,23.942 13.879,23.942C13.183,23.942 12.553,24.07 11.988,24.325C11.427,24.577 10.98,24.933 10.646,25.391C10.316,25.845 10.151,26.378 10.151,26.989C10.151,27.724 10.399,28.319 10.896,28.773C11.394,29.228 12.068,29.577 12.921,29.822L14.263,30.206C14.646,30.313 15.003,30.437 15.334,30.579C15.664,30.721 15.93,30.906 16.133,31.133C16.335,31.36 16.436,31.655 16.436,32.017C16.436,32.415 16.319,32.763 16.084,33.061C15.85,33.356 15.532,33.587 15.131,33.754C14.73,33.917 14.277,33.999 13.773,33.999C13.339,33.999 12.935,33.935 12.558,33.807C12.185,33.675 11.876,33.477 11.631,33.21C11.39,32.94 11.251,32.599 11.216,32.188L9.852,32.188C9.895,32.784 10.078,33.308 10.401,33.759C10.728,34.21 11.175,34.561 11.743,34.814C12.315,35.066 12.992,35.192 13.773,35.192C14.611,35.192 15.323,35.052 15.909,34.771C16.498,34.49 16.946,34.112 17.251,33.636C17.56,33.161 17.715,32.628 17.715,32.038C17.715,31.527 17.61,31.096 17.4,30.744C17.191,30.392 16.924,30.105 16.601,29.881C16.282,29.654 15.946,29.474 15.595,29.343C15.246,29.212 14.93,29.109 14.646,29.034L13.538,28.736C13.336,28.683 13.114,28.613 12.873,28.528C12.631,28.439 12.4,28.327 12.18,28.193C11.96,28.054 11.779,27.882 11.637,27.676C11.498,27.466 11.429,27.216 11.429,26.925C11.429,26.577 11.528,26.266 11.727,25.993C11.93,25.719 12.21,25.504 12.569,25.348C12.931,25.192 13.354,25.114 13.837,25.114C14.497,25.114 15.055,25.263 15.509,25.561C15.964,25.859 16.223,26.278 16.287,26.818ZM32.633,31.016L35.02,31.016C35.868,31.016 36.564,30.861 37.108,30.552C37.651,30.24 38.052,29.821 38.312,29.295C38.574,28.77 38.706,28.185 38.706,27.543C38.706,26.9 38.574,26.318 38.312,25.796C38.049,25.273 37.644,24.86 37.097,24.554C36.554,24.245 35.854,24.091 34.998,24.091L31.312,24.091L31.312,35L32.633,35L32.633,31.016ZM32.633,29.844L32.633,25.263L34.956,25.263C35.549,25.263 36.025,25.362 36.383,25.561C36.742,25.756 37.001,26.026 37.161,26.371C37.324,26.715 37.406,27.106 37.406,27.543C37.406,27.979 37.324,28.372 37.161,28.72C37.001,29.064 36.744,29.338 36.389,29.54C36.033,29.743 35.563,29.844 34.977,29.844L32.633,29.844ZM29.091,29.546C29.091,28.395 28.883,27.401 28.468,26.563C28.052,25.724 27.482,25.078 26.758,24.624C26.034,24.169 25.206,23.942 24.276,23.942C23.345,23.942 22.518,24.169 21.793,24.624C21.069,25.078 20.499,25.724 20.084,26.563C19.668,27.401 19.46,28.395 19.46,29.546C19.46,30.696 19.668,31.69 20.084,32.528C20.499,33.367 21.069,34.013 21.793,34.467C22.518,34.922 23.345,35.149 24.276,35.149C25.206,35.149 26.034,34.922 26.758,34.467C27.482,34.013 28.052,33.367 28.468,32.528C28.883,31.69 29.091,30.696 29.091,29.546ZM27.813,29.546C27.813,30.49 27.655,31.287 27.339,31.937C27.026,32.587 26.602,33.079 26.065,33.413C25.533,33.746 24.936,33.913 24.276,33.913C23.615,33.913 23.017,33.746 22.481,33.413C21.948,33.079 21.523,32.587 21.208,31.937C20.895,31.287 20.739,30.49 20.739,29.546C20.739,28.601 20.895,27.804 21.208,27.154C21.523,26.504 21.948,26.012 22.481,25.678C23.017,25.345 23.615,25.178 24.276,25.178C24.936,25.178 25.533,25.345 26.065,25.678C26.602,26.012 27.026,26.504 27.339,27.154C27.655,27.804 27.813,28.601 27.813,29.546Z" style="fill:#888888"/>
</svg>
